HIERARCHY
ROOT Hips
{
	OFFSET -0.001795 -0.223333 0.028219
	CHANNELS 6 Xposition Yposition Zposition Zrotation Yrotation Xrotation 
	JOINT LeftUpLeg
	{
		OFFSET 0.069520 -0.091406 -0.006815
		CHANNELS 3 Zrotation Yrotation Xrotation
		JOINT LeftLeg
		{
			OFFSET 0.034277 -0.375199 -0.004496
			CHANNELS 3 Zrotation Yrotation Xrotation
			JOINT LeftFoot
			{
				OFFSET -0.013596 -0.397961 -0.043693
				CHANNELS 3 Zrotation Yrotation Xrotation
				JOINT LeftToe
				{
					OFFSET 0.026358 -0.055791 0.119288
					CHANNELS 3 Zrotation Yrotation Xrotation
					End Site
					{
						OFFSET 0.000000 0.000000 0.000000
					}
				}
			}
		}
	}
	JOINT RightUpLeg
	{
		OFFSET -0.067670 -0.090522 -0.004320
		CHANNELS 3 Zrotation Yrotation Xrotation
		JOINT RightLeg
		{
			OFFSET -0.038290 -0.382569 -0.008850
			CHANNELS 3 Zrotation Yrotation Xrotation
			JOINT RightFoot
			{
				OFFSET 0.015774 -0.398415 -0.042312
				CHANNELS 3 Zrotation Yrotation Xrotation
				JOINT RightToe
				{
					OFFSET -0.025372 -0.048144 0.123348
					CHANNELS 3 Zrotation Yrotation Xrotation
					End Site
					{
						OFFSET 0.000000 0.000000 0.000000
					}
				}
			}
		}
	}
	JOINT Spine
	{
		OFFSET -0.002533 0.108963 -0.026696
		CHANNELS 3 Zrotation Yrotation Xrotation
		JOINT Spine1
		{
			OFFSET 0.005487 0.135180 0.001092
			CHANNELS 3 Zrotation Yrotation Xrotation
			JOINT Spine2
			{
				OFFSET 0.001457 0.052922 0.025425
				CHANNELS 3 Zrotation Yrotation Xrotation
				JOINT Neck
				{
					OFFSET -0.002778 0.213870 -0.042857
					CHANNELS 3 Zrotation Yrotation Xrotation
					JOINT Head
					{
						OFFSET 0.005152 0.064970 0.051349
						CHANNELS 3 Zrotation Yrotation Xrotation
						End Site
						{
							OFFSET 0.000000 0.000000 0.000000
						}
					}
				}
				JOINT LeftShoulder
				{
					OFFSET 0.078845 0.121749 -0.034090
					CHANNELS 3 Zrotation Yrotation Xrotation
					JOINT LeftArm
					{
						OFFSET 0.090977 0.030469 -0.008868
						CHANNELS 3 Zrotation Yrotation Xrotation
						JOINT LeftForeArm
						{
							OFFSET 0.259612 -0.012772 -0.027456
							CHANNELS 3 Zrotation Yrotation Xrotation
							JOINT LeftHand
							{
								OFFSET 0.249234 0.008986 -0.001171
								CHANNELS 3 Zrotation Yrotation Xrotation
								End Site
								{
									OFFSET 0.000000 0.000000 0.000000
								}
							}
						}
					}
				}
				JOINT RightShoulder
				{
					OFFSET -0.081759 0.118833 -0.038615
					CHANNELS 3 Zrotation Yrotation Xrotation
					JOINT RightArm
					{
						OFFSET -0.096012 0.032551 -0.009143
						CHANNELS 3 Zrotation Yrotation Xrotation
						JOINT RightForeArm
						{
							OFFSET -0.253742 -0.013329 -0.021401
							CHANNELS 3 Zrotation Yrotation Xrotation
							JOINT RightHand
							{
								OFFSET -0.255298 0.007772 -0.005559
								CHANNELS 3 Zrotation Yrotation Xrotation
								End Site
								{
									OFFSET 0.000000 0.000000 0.000000
								}
							}
						}
					}
				}
			}
		}
	}
}
MOTION
Frames: 5
Frame Time: 0.050000
0.000000 0.913373 0.000000 -2.290492 -8.754269 3.829784 12.497557 0.736394 -19.808827 -7.403093 1.565407 12.309610 4.667786 11.199366 11.776247 0.000000 0.000000 0.000000 -4.099015 0.250674 -0.698718 3.670505 -0.076443 11.527692 -2.931395 -4.790523 -4.704327 0.000000 0.000000 0.000000 0.184564 -0.522840 17.670958 -6.354323 1.976057 -24.127052 -2.366234 9.109810 26.908117 11.495671 -2.511660 -36.864157 0.000000 0.000000 0.000000 -25.950932 -15.420046 6.698240 -40.591882 -14.179953 -1.914953 -2.114275 -17.851325 1.001999 0.000000 0.000000 0.000000 32.238384 3.280378 1.867918 49.539983 14.635405 -1.806932 5.342131 18.162488 1.579132 0.000000 0.000000 0.000000 
0.010979 0.913674 0.015082 -3.135269 -9.443866 4.427290 12.817986 0.842078 -19.771824 -7.854668 1.775355 13.274513 5.230303 11.893956 10.097422 0.000000 0.000000 0.000000 -4.465686 0.404064 -2.862286 4.385324 -0.063979 15.649620 -2.723103 -5.133703 -3.066061 0.000000 0.000000 0.000000 -0.104379 -0.457133 17.548658 -6.646146 2.068163 -22.343582 -3.346133 8.446513 24.859257 11.870073 -2.608705 -37.610351 0.000000 0.000000 0.000000 -25.765536 -13.390856 5.720118 -38.967578 -14.189503 -1.847916 -4.764552 -18.300405 1.448399 0.000000 0.000000 0.000000 32.699367 3.297540 1.358075 49.901492 13.536445 -1.938720 6.236927 19.268364 1.817146 0.000000 0.000000 0.000000 
0.021047 0.914406 0.028433 -3.591139 -9.226972 4.259078 13.085637 0.851948 -19.300081 -8.906517 2.112432 14.192650 5.239930 11.839063 8.874305 0.000000 0.000000 0.000000 -4.992082 0.638754 -6.604409 6.787819 -0.451560 23.753679 -4.244404 -10.465423 0.101743 0.000000 0.000000 0.000000 -0.550596 -0.388286 17.760227 -7.091008 2.225143 -21.182081 -2.903655 8.237033 24.946760 12.123287 -3.049774 -35.936059 0.000000 0.000000 0.000000 -23.755119 -14.995511 6.622082 -38.153356 -16.182068 -1.288420 -4.476747 -16.663184 1.253735 0.000000 0.000000 0.000000 32.495626 4.131424 1.959876 49.518625 13.803974 -1.848488 5.354851 19.872329 1.735901 0.000000 0.000000 0.000000 
0.029523 0.917560 0.040437 -4.184207 -9.938936 4.011771 13.518604 0.896597 -17.769874 -9.741463 2.338511 13.722758 5.503180 12.230460 8.614114 0.000000 0.000000 0.000000 -6.756675 0.876813 -10.953081 9.659004 -1.196323 30.997792 -3.394261 -11.268029 8.059829 0.000000 0.000000 0.000000 -0.376507 -0.409089 19.148513 -8.035155 2.426783 -22.413146 -2.237207 8.165682 25.102509 13.250484 -3.755564 -35.471913 0.000000 0.000000 0.000000 -23.806141 -15.902741 7.337485 -36.138025 -15.488713 -1.524941 -5.047015 -17.914120 1.429055 0.000000 0.000000 0.000000 32.586980 4.006054 1.657684 48.480881 13.149484 -2.072980 6.291451 20.618558 1.951887 0.000000 0.000000 0.000000 
0.035768 0.919197 0.051144 -5.047179 -10.272664 3.373567 13.789899 0.854299 -15.527687 -9.577427 2.220314 12.639723 5.678016 12.446947 7.510558 0.000000 0.000000 0.000000 -7.998796 0.992535 -14.124590 13.300638 -2.546496 35.111406 -5.345916 -15.902716 12.572639 0.000000 0.000000 0.000000 -0.844633 -0.314415 20.319606 -6.851114 2.120489 -21.998244 -2.392521 8.877468 24.349006 14.535608 -4.393518 -34.804367 0.000000 0.000000 0.000000 -22.718932 -15.839119 6.975913 -36.035079 -14.786426 -1.608730 -4.337404 -19.591257 1.439002 0.000000 0.000000 0.000000 32.892334 4.543949 2.281912 47.152778 13.539620 -1.946001 6.624764 21.924984 2.151749 0.000000 0.000000 0.000000 
